<svg width="16" height="20" viewBox="0 0 16 20" fill="none" xmlns="http://www.w3.org/2000/svg">
<path fill-rule="evenodd" clip-rule="evenodd" d="M9.88843 4C9.88843 5.10457 8.993 6 7.88843 6C6.78386 6 5.88843 5.10457 5.88843 4C5.88843 2.89543 6.78386 2 7.88843 2C8.993 2 9.88843 2.89543 9.88843 4ZM11.8884 4C11.8884 6.20914 10.0976 8 7.88843 8C5.67929 8 3.88843 6.20914 3.88843 4C3.88843 1.79086 5.67929 0 7.88843 0C10.0976 0 11.8884 1.79086 11.8884 4ZM7.88845 18C6.14485 18 3.74142 17.6506 2.08917 17.3675C2.3021 15.462 2.62766 13.9689 3.31532 12.9024C3.96804 11.8901 5.12553 11 7.88845 11C10.6514 11 11.8089 11.8901 12.4616 12.9024C13.1492 13.9689 13.4748 15.462 13.6877 17.3675C12.0355 17.6506 9.63204 18 7.88845 18ZM7.88845 20C10.2057 20 13.4497 19.4529 14.9817 19.168C15.4783 19.0757 15.8182 18.6217 15.7728 18.1186C15.3539 13.4767 14.4722 9 7.88845 9C1.30468 9 0.422972 13.4767 0.00405907 18.1186C-0.0413372 18.6217 0.298607 19.0757 0.79517 19.168C2.32718 19.4529 5.57118 20 7.88845 20Z" fill="#0A0A0A"/>
</svg>
